<?xml version="1.0" encoding="UTF-8"?>
<svg width="14px" height="14px" viewBox="0 0 14 14" version="1.1" xmlns="http://www.w3.org/2000/svg" xmlns:xlink="http://www.w3.org/1999/xlink">
    <!-- Generator: Sketch 56.3 (81716) - https://sketch.com -->
    <title>gengxin</title>
    <desc>Created with Sketch.</desc>
    <g id="Page-1" stroke="none" stroke-width="1" fill="none" fill-rule="evenodd">
        <g id="应用更新" transform="translate(-82.000000, -652.000000)" fill="#FFFFFF" fill-rule="nonzero">
            <g id="侧边栏" transform="translate(59.000000, 96.000000)">
                <g id="gengxin" transform="translate(23.000000, 556.000000)">
                    <path d="M7,0 C3.13579784,0.00432065178 0.00432065178,3.13579784 0,7 C0.00432065178,10.8642022 3.13579784,13.9956793 7,14 C10.8642022,13.9956793 13.9956793,10.8642022 14,7 C13.9956793,3.13579784 10.8642022,0.00432065178 7,0 Z M10.94688,7.93743999 L10.94016,7.93743999 C10.9474845,7.98494599 10.9474845,8.033294 10.94016,8.0808 C10.64,9.87952001 8.98799999,11.25264 6.99776,11.2470571 C6.1762305,11.2472043 5.37345753,11.0014575 4.69279999,10.54144 L3.8024,11.14512 L3.80128,11.14512 C3.45856,11.37696 2.98144001,11.14512 2.98255802,10.74752 L2.98592,8.50528 C2.98592,8.18272 3.31295999,7.94864 3.64336,8.036 L6.01776,8.66768 C6.4344,8.77856 6.53072,9.29488 6.17904,9.53456001 L5.69519999,9.86272 C6.08719999,10.0576 6.52848,10.17296 7.00112,10.17408 C8.41232,10.17856 9.58832,9.20751999 9.81232,7.93408 L9.81456,7.4928 C9.81456,7.20047999 10.06656,6.96416001 10.3768,6.96416001 L10.388,6.96416001 C10.69824,6.96528001 10.94912,7.20384 10.9480037,7.49616 L10.9480037,7.93743999 L10.94688,7.93743999 Z M10.29728,5.87216 L7.92288,5.2416 C7.50511999,5.12959999 7.4088,4.61327999 7.7616,4.37472 L8.24544,4.04656 C7.84002472,3.84316977 7.39308866,3.7362271 6.93952,3.73408001 C5.52832,3.73072 4.35232,4.70176001 4.12831999,5.97408 L4.12608001,6.41647999 C4.11573159,6.71706443 3.86447356,6.95280652 3.56383999,6.944 L3.55264,6.944 C3.25159947,6.95152622 3.00118504,6.71413334 2.99264,6.41312 L2.99376,5.97184 L3.0016,5.97184 C2.9943349,5.92395399 2.9943349,5.87524601 3.0016,5.82736001 C3.30064,4.02864 4.95376,2.65552001 6.94288,2.66110292 C7.76438901,2.66110292 8.56712279,2.90682746 9.24784,3.36671999 L10.13936,2.76415999 C10.48208,2.53232 10.9592,2.76415999 10.958082,3.16176001 L10.95472,5.40288 C10.95472,5.72768001 10.62768,5.96064001 10.29728,5.87328 L10.29728,5.87216 Z" id="Shape"></path>
                </g>
            </g>
        </g>
    </g>
</svg>