<?xml version="1.0" encoding="UTF-8"?>
<svg width="16px" height="16px" viewBox="0 0 16 16" version="1.1" xmlns="http://www.w3.org/2000/svg" xmlns:xlink="http://www.w3.org/1999/xlink">
    <!-- Generator: Sketch 56.3 (81716) - https://sketch.com -->
    <title>user-application</title>
    <desc>Created with Sketch.</desc>
    <g id="user-application" stroke="none" stroke-width="1" fill="none" fill-rule="evenodd">
        <g id="编组" transform="translate(1.000000, 1.000000)" fill="#536076">
            <path d="M7.5,0.288675135 L12.5621778,3.21132487 C12.8715789,3.38995766 13.0621778,3.72008468 13.0621778,4.07735027 L13.0621778,9.92264973 C13.0621778,10.2799153 12.8715789,10.6100423 12.5621778,10.7886751 L7.5,13.7113249 C7.19059892,13.8899577 6.80940108,13.8899577 6.5,13.7113249 L1.43782217,10.7886751 C1.1284211,10.6100423 0.937822174,10.2799153 0.937822174,9.92264973 L0.937822174,4.07735027 C0.937822174,3.72008468 1.1284211,3.38995766 1.43782217,3.21132487 L6.5,0.288675135 C6.80940108,0.11004234 7.19059892,0.11004234 7.5,0.288675135 Z M2.81673112,5.29259887 C2.8504273,5.41995249 2.93249332,5.52847492 3.04487283,5.59428881 L6.44746074,7.69254247 L6.44746074,11.636972 C6.44746074,11.91194 6.66514344,12.1333333 6.93551918,12.1333333 C7.06503064,12.1335538 7.1893038,12.0813352 7.28088238,11.9882011 C7.37246096,11.8950671 7.42380744,11.7686832 7.42357761,11.636972 L7.42357761,7.69869191 L10.9709119,5.6313802 C11.1935874,5.48925713 11.2658894,5.19349973 11.1345814,4.96187597 C11.0032735,4.73025221 10.7153689,4.64569218 10.4828535,4.77045795 L6.93551918,6.73017909 L3.53293126,4.73160957 C3.29879981,4.59653185 3.00136013,4.67892258 2.86692586,4.91609292 C2.80046929,5.02949436 2.78303494,5.16524525 2.81673112,5.29259887 Z" id="形状结合"></path>
        </g>
    </g>
</svg>