<?xml version="1.0" encoding="UTF-8"?>
<svg width="16px" height="16px" viewBox="0 0 16 16" version="1.1" xmlns="http://www.w3.org/2000/svg" xmlns:xlink="http://www.w3.org/1999/xlink">
    <!-- Generator: Sketch 56.3 (81716) - https://sketch.com -->
    <title>category_video</title>
    <desc>Created with Sketch.</desc>
    <g id="category_video" stroke="none" stroke-width="1" fill="none" fill-rule="evenodd">
        <path d="M4,1 L12,1 C13.1045695,1 14,1.8954305 14,3 L14,12 C14,13.1045695 13.1045695,14 12,14 L4,14 C2.8954305,14 2,13.1045695 2,12 L2,3 C2,1.8954305 2.8954305,1 4,1 Z M5,2.5 C5,2.22385763 4.77614237,2 4.5,2 L4,2 C3.44771525,2 3,2.44771525 3,3 L3,3.5 C3,3.77614237 3.22385763,4 3.5,4 L4.5,4 C4.77614237,4 5,3.77614237 5,3.5 L5,2.5 Z M5,5.5 C5,5.22385763 4.77614237,5 4.5,5 L3.5,5 C3.22385763,5 3,5.22385763 3,5.5 L3,6.5 C3,6.77614237 3.22385763,7 3.5,7 L4.5,7 C4.77614237,7 5,6.77614237 5,6.5 L5,5.5 Z M5,8.5 C5,8.22385763 4.77614237,8 4.5,8 L3.5,8 C3.22385763,8 3,8.22385763 3,8.5 L3,9.5 C3,9.77614237 3.22385763,10 3.5,10 L4.5,10 C4.77614237,10 5,9.77614237 5,9.5 L5,8.5 Z M5,11.5 C5,11.2238576 4.77614237,11 4.5,11 L3.5,11 C3.22385763,11 3,11.2238576 3,11.5 L3,12 C3,12.5522847 3.44771525,13 4,13 L4.5,13 C4.77614237,13 5,12.7761424 5,12.5 L5,11.5 Z M13,3 C13,2.44771525 12.5522847,2 12,2 L11.5,2 C11.2238576,2 11,2.22385763 11,2.5 L11,3.5 C11,3.77614237 11.2238576,4 11.5,4 L12.5,4 C12.7761424,4 13,3.77614237 13,3.5 L13,3 Z M13,5.5 C13,5.22385763 12.7761424,5 12.5,5 L11.5,5 C11.2238576,5 11,5.22385763 11,5.5 L11,6.5 C11,6.77614237 11.2238576,7 11.5,7 L12.5,7 C12.7761424,7 13,6.77614237 13,6.5 L13,5.5 Z M13,8.5 C13,8.22385763 12.7761424,8 12.5,8 L11.5,8 C11.2238576,8 11,8.22385763 11,8.5 L11,9.5 C11,9.77614237 11.2238576,10 11.5,10 L12.5,10 C12.7761424,10 13,9.77614237 13,9.5 L13,8.5 Z M13,11.5 C13,11.2238576 12.7761424,11 12.5,11 L11.5,11 C11.2238576,11 11,11.2238576 11,11.5 L11,12.5 C11,12.7761424 11.2238576,13 11.5,13 L12,13 C12.5522847,13 13,12.5522847 13,12 L13,11.5 Z" id="形状结合" fill="#536076"></path>
    </g>
</svg>