<?xml version="1.0" encoding="UTF-8"?>
<svg width="16px" height="16px" viewBox="0 0 16 16" version="1.1" xmlns="http://www.w3.org/2000/svg" xmlns:xlink="http://www.w3.org/1999/xlink">
    <!-- Generator: Sketch 56.3 (81716) - https://sketch.com -->
    <title>category_chat</title>
    <desc>Created with Sketch.</desc>
    <g id="category_chat" stroke="none" stroke-width="1" fill="none" fill-rule="evenodd">
        <path d="M1,6.97674118 C1,3.65890157 4.14834473,1 8,1 C11.8521383,1 15,3.6586977 15,6.97674118 C15,10.2940677 11.8521479,12.9520398 8,12.9520398 C7.1701124,12.9520398 6.35870225,12.8277601 5.59327021,12.5884734 L3.17500944,14.0039851 C2.82250911,14.2103187 2.40023795,13.8731888 2.52921313,13.4883988 L3.24259849,11.360055 C1.82894195,10.2425495 1,8.66969554 1,6.97674118 Z M4.73333333,6.6 C4.73333333,6.0848 4.3152,5.66666667 3.8,5.66666667 C3.2848,5.66666667 2.86666667,6.0848 2.86666667,6.6 C2.86666667,7.1152 3.2848,7.53333333 3.8,7.53333333 C4.3152,7.53333333 4.73333333,7.1152 4.73333333,6.6 Z M8.46666667,6.6 C8.46666667,6.0848 8.04853333,5.66666667 7.53333333,5.66666667 C7.01813333,5.66666667 6.6,6.0848 6.6,6.6 C6.6,7.1152 7.01813333,7.53333333 7.53333333,7.53333333 C8.04853333,7.53333333 8.46666667,7.1152 8.46666667,6.6 Z M13.1333333,6.6 C13.1333333,6.0848 12.7152,5.66666667 12.2,5.66666667 C11.6848,5.66666667 11.2666667,6.0848 11.2666667,6.6 C11.2666667,7.1152 11.6848,7.53333333 12.2,7.53333333 C12.7152,7.53333333 13.1333333,7.1152 13.1333333,6.6 Z" id="Shape" fill="#C5CFE0"></path>
    </g>
</svg>